<svg width="204" height="201" viewBox="0 0 204 201" fill="none" xmlns="http://www.w3.org/2000/svg">
<path d="M83.6282 14.2137C93.9873 4.59514 110.012 4.59535 120.371 14.2137L170.139 60.4247C175.641 65.5334 178.768 72.7019 178.768 80.2098V150.661C178.768 165.573 166.679 177.661 151.768 177.661H52.2327C37.321 177.661 25.2327 165.573 25.2327 150.661V80.2098C25.2328 72.7021 28.3589 65.5333 33.8606 60.4247L83.6282 14.2137Z" fill="black" stroke="white" stroke-width="14"/>
<mask id="path-2-outside-1_65_112" maskUnits="userSpaceOnUse" x="0" y="81.4755" width="204" height="120" fill="black">
<rect fill="white" y="81.4755" width="204" height="120"/>
<path d="M91.2559 95.4755C108.036 95.4755 122.541 105.21 129.438 119.339C133.093 117.18 137.355 115.94 141.907 115.94C151.878 115.94 160.461 121.883 164.308 130.42C165.183 130.319 166.074 130.266 166.977 130.266C179.692 130.266 190 140.574 190 153.289C190 166.004 179.692 176.312 166.977 176.312C164.41 176.312 161.943 175.892 159.638 175.117C153.727 180.863 144.997 184.499 135.256 184.499C126.126 184.499 117.883 181.304 112.019 176.173C106.221 182.461 97.1881 186.504 87.04 186.504C78.6323 186.504 70.9908 183.728 65.3193 179.2C59.8877 183.782 52.8714 186.545 45.209 186.545C27.9727 186.545 14 172.572 14 155.336C14 138.1 27.9727 124.127 45.209 124.127C47.1579 124.127 49.0651 124.307 50.915 124.648C56.4942 107.706 72.4457 95.4755 91.2559 95.4755Z"/>
</mask>
<path d="M91.2559 95.4755C108.036 95.4755 122.541 105.21 129.438 119.339C133.093 117.18 137.355 115.94 141.907 115.94C151.878 115.94 160.461 121.883 164.308 130.42C165.183 130.319 166.074 130.266 166.977 130.266C179.692 130.266 190 140.574 190 153.289C190 166.004 179.692 176.312 166.977 176.312C164.41 176.312 161.943 175.892 159.638 175.117C153.727 180.863 144.997 184.499 135.256 184.499C126.126 184.499 117.883 181.304 112.019 176.173C106.221 182.461 97.1881 186.504 87.04 186.504C78.6323 186.504 70.9908 183.728 65.3193 179.2C59.8877 183.782 52.8714 186.545 45.209 186.545C27.9727 186.545 14 172.572 14 155.336C14 138.1 27.9727 124.127 45.209 124.127C47.1579 124.127 49.0651 124.307 50.915 124.648C56.4942 107.706 72.4457 95.4755 91.2559 95.4755Z" fill="black"/>
<path d="M91.2559 95.4755V81.4755V81.4755V95.4755ZM129.438 119.339L116.856 125.48L123.505 139.101L136.557 131.393L129.438 119.339ZM141.907 115.94L141.907 101.94H141.907V115.94ZM164.308 130.42L151.544 136.172L155.748 145.501L165.913 144.327L164.308 130.42ZM166.977 130.266V116.266H166.976L166.977 130.266ZM190 153.289H204V153.289L190 153.289ZM166.977 176.312L166.976 190.312H166.977V176.312ZM159.638 175.117L164.098 161.847L156.003 159.126L149.879 165.079L159.638 175.117ZM135.256 184.499V198.499H135.256L135.256 184.499ZM112.019 176.173L121.238 165.637L110.973 156.655L101.726 166.682L112.019 176.173ZM87.04 186.504V200.504H87.04L87.04 186.504ZM65.3193 179.2L74.054 168.259L65.0748 161.091L56.2924 168.499L65.3193 179.2ZM45.209 186.545L45.2088 200.545H45.209V186.545ZM14 155.336L0 155.336V155.336H14ZM45.209 124.127V110.127H45.2088L45.209 124.127ZM50.915 124.648L48.3715 138.415L60.3898 140.636L64.2126 129.027L50.915 124.648ZM91.2559 95.4755V109.475C102.482 109.475 112.216 115.974 116.856 125.48L129.438 119.339L142.019 113.198C132.866 94.4458 113.591 81.4755 91.2559 81.4755V95.4755ZM129.438 119.339L136.557 131.393C138.117 130.472 139.93 129.94 141.907 129.94V115.94V101.94C134.78 101.94 128.068 103.888 122.318 107.284L129.438 119.339ZM141.907 115.94L141.907 129.94C146.172 129.94 149.876 132.47 151.544 136.172L164.308 130.42L177.071 124.668C171.046 111.296 157.585 101.94 141.907 101.94L141.907 115.94ZM164.308 130.42L165.913 144.327C166.26 144.287 166.614 144.266 166.977 144.266L166.977 130.266L166.976 116.266C165.533 116.266 164.107 116.35 162.702 116.512L164.308 130.42ZM166.977 130.266V144.266C171.96 144.266 176 148.306 176 153.289L190 153.289L204 153.289C204 132.841 187.423 116.266 166.977 116.266V130.266ZM190 153.289H176C176 158.272 171.96 162.312 166.977 162.312V176.312V190.312C187.424 190.312 204 173.736 204 153.289H190ZM166.977 176.312L166.977 162.312C165.949 162.312 164.987 162.145 164.098 161.847L159.638 175.117L155.178 188.388C158.899 189.638 162.872 190.312 166.976 190.312L166.977 176.312ZM159.638 175.117L149.879 165.079C146.739 168.131 141.578 170.499 135.256 170.499L135.256 184.499L135.256 198.499C148.416 198.499 160.715 193.594 169.396 185.155L159.638 175.117ZM135.256 184.499V170.499C129.344 170.499 124.423 168.424 121.238 165.637L112.019 176.173L102.8 186.709C111.344 194.185 122.908 198.499 135.256 198.499V184.499ZM112.019 176.173L101.726 166.682C98.7569 169.903 93.5489 172.504 87.04 172.504L87.04 186.504L87.04 200.504C100.827 200.504 113.684 195.019 122.311 185.663L112.019 176.173ZM87.04 186.504V172.504C81.6831 172.504 77.1501 170.731 74.054 168.259L65.3193 179.2L56.5847 190.141C64.8314 196.725 75.5815 200.504 87.04 200.504V186.504ZM65.3193 179.2L56.2924 168.499C53.2896 171.032 49.4433 172.545 45.209 172.545V186.545V200.545C56.2996 200.545 66.4857 196.532 74.3463 189.901L65.3193 179.2ZM45.209 186.545L45.2091 172.545C35.7046 172.545 28 164.84 28 155.336H14H0C0 180.304 20.2408 200.545 45.2088 200.545L45.209 186.545ZM14 155.336L28 155.336C28 145.832 35.7046 138.127 45.2091 138.127L45.209 124.127L45.2088 110.127C20.2408 110.127 2.86102e-05 130.367 0 155.336L14 155.336ZM45.209 124.127V138.127C46.2955 138.127 47.3514 138.227 48.3715 138.415L50.915 124.648L53.4585 110.881C50.7788 110.386 48.0203 110.127 45.209 110.127V124.127ZM50.915 124.648L64.2126 129.027C67.9578 117.654 78.6698 109.475 91.2559 109.475V95.4755V81.4755C66.2216 81.4755 45.0307 97.758 37.6175 120.269L50.915 124.648Z" fill="white" mask="url(#path-2-outside-1_65_112)"/>
</svg>
